<svg xmlns="http://www.w3.org/2000/svg" viewBox="0 0 29.955 29.994">
  <defs>
    <style>
      .cls-1 {
        fill: #fff;
      }
    </style>
  </defs>
  <path id="iconfinder_icon-ios7-gear_211751" class="cls-1" d="M92.151,75.909H90.964a1.826,1.826,0,0,1-1.78-1.827,1.709,1.709,0,0,1,.586-1.288l.765-.75a1.918,1.918,0,0,0,0-2.725l-1.741-1.726a1.982,1.982,0,0,0-2.733,0l-.734.734a1.764,1.764,0,0,1-1.328.6,1.826,1.826,0,0,1-1.835-1.773V65.96A1.952,1.952,0,0,0,80.25,64H77.876a1.94,1.94,0,0,0-1.905,1.96v1.187a1.826,1.826,0,0,1-1.835,1.773,1.746,1.746,0,0,1-1.3-.578l-.757-.75a1.924,1.924,0,0,0-1.367-.547,1.972,1.972,0,0,0-1.367.547L67.592,69.31a1.923,1.923,0,0,0,0,2.717l.734.734a1.768,1.768,0,0,1,.609,1.32,1.82,1.82,0,0,1-1.78,1.827H65.968A1.935,1.935,0,0,0,64,77.806V80.18a1.94,1.94,0,0,0,1.968,1.9h1.187a1.826,1.826,0,0,1,1.78,1.827,1.768,1.768,0,0,1-.609,1.32l-.734.726a1.923,1.923,0,0,0,0,2.718L69.333,90.4a1.924,1.924,0,0,0,1.367.547,1.972,1.972,0,0,0,1.367-.547l.757-.75a1.733,1.733,0,0,1,1.3-.578,1.826,1.826,0,0,1,1.835,1.773v1.187a1.947,1.947,0,0,0,1.913,1.96h2.374a1.94,1.94,0,0,0,1.905-1.96V90.847a1.814,1.814,0,0,1,3.163-1.171l.734.734a1.982,1.982,0,0,0,2.733,0l1.741-1.734a1.932,1.932,0,0,0,0-2.725l-.765-.75a1.721,1.721,0,0,1-.586-1.288,1.82,1.82,0,0,1,1.78-1.827h1.187a1.816,1.816,0,0,0,1.819-1.9V77.806A1.794,1.794,0,0,0,92.151,75.909ZM85.3,78.993h0a6.247,6.247,0,1,1-12.494,0h0a6.247,6.247,0,0,1,12.494,0Z" transform="translate(-64 -64)"/>
</svg>
